<svg xmlns="http://www.w3.org/2000/svg" viewBox="0 0 500 350"><defs><style>.cls-1{fill:#fff;}.cls-2{fill:#625c88;}.cls-3{fill:#828bc2;}.cls-4{fill:#9ba9cc;}.cls-5{fill:none;}</style></defs><g id="Capa_2" data-name="Capa 2"><g id="Capa_1-2" data-name="Capa 1"><rect class="cls-1" width="500" height="350"/><path class="cls-2" d="M427.76,116.82a17.21,17.21,0,0,0-13.4-16.35,141,141,0,0,0-30.24-3.3c-1.84,0-3.66,0-5.49.12-2.29.08-4.57.23-6.84.43.28,2.26.5,4.51.66,6.77,2.26-.2,4.54-.35,6.82-.42,1.62-.07,3.24-.1,4.86-.1a133.3,133.3,0,0,1,28.74,3.15,10.31,10.31,0,0,1,8.05,9.8,129.68,129.68,0,0,1-48.36,103.37A131.22,131.22,0,0,1,268.42,248c-2.48-.41-5-.88-7.43-1.43a9.93,9.93,0,0,1-3.33-1.39,10.51,10.51,0,0,1-2.61-2.41,7.93,7.93,0,0,1-.69-1,10,10,0,0,1-.82-1.71,5.54,5.54,0,0,0,.11-.56l-.26.09a8.53,8.53,0,0,1-1.77.4,10.14,10.14,0,0,1-5-.52l-.32-.12c0,.23.08.46.13.69a9.39,9.39,0,0,1-.81,1.73,8,8,0,0,1-.7,1,10.27,10.27,0,0,1-5.93,3.8c-2.47.55-4.95,1-7.43,1.43a131.22,131.22,0,0,1-104.14-27.7A129.68,129.68,0,0,1,79.08,116.92a10.31,10.31,0,0,1,8-9.8A133.3,133.3,0,0,1,115.87,104c1.62,0,3.24,0,4.86.1,2.28.07,4.56.22,6.82.42.16-2.26.38-4.51.66-6.77-2.27-.2-4.55-.35-6.84-.43a139.76,139.76,0,0,0-35.73,3.18,17.21,17.21,0,0,0-13.4,16.35,136.51,136.51,0,0,0,50.87,108.75,138,138,0,0,0,87.1,30.95,140.71,140.71,0,0,0,30.29-3.31,17.09,17.09,0,0,0,9.5-5.86,17.16,17.16,0,0,0,9.5,5.86,140.71,140.71,0,0,0,30.29,3.31,138,138,0,0,0,87.1-30.95A136.51,136.51,0,0,0,427.76,116.82Z"/><path class="cls-3" d="M379.27,104.07c-.16-2.27-.37-4.52-.64-6.78a138.4,138.4,0,0,0-8.88-34.8,17.27,17.27,0,0,0-18.36-10.57,138.92,138.92,0,0,0-53.74,19.54c-1.94,1.21-3.85,2.46-5.72,3.77,1.05,2,2.06,4.12,3,6.21,1.88-1.33,3.8-2.62,5.75-3.84a132,132,0,0,1,51.69-18.95,10,10,0,0,1,1.43-.11A10.4,10.4,0,0,1,363.4,65a131,131,0,0,1,8.39,32.73c.28,2.26.5,4.51.66,6.77a130.88,130.88,0,0,1-110.4,137.73c-.68.11-1.38.22-2.07.31a10.12,10.12,0,0,1-4.49-.36,16.65,16.65,0,0,0,1.9-3.47c.28-.7.56-1.41.82-2.12l-1.65,1.31a10.06,10.06,0,0,1-2.91,1.58l-.26.09a8.53,8.53,0,0,1-1.77.4,10.14,10.14,0,0,1-5-.52l-.32-.12a9.75,9.75,0,0,1-2.5-1.43c-.74-.58-1.47-1.16-2.2-1.77.32.87.65,1.72,1,2.58a16.61,16.61,0,0,0,1.89,3.47,10.12,10.12,0,0,1-4.49.36l-1.57-.23A130.89,130.89,0,0,1,127.55,104.49c.16-2.26.38-4.51.66-6.77A131,131,0,0,1,136.6,65a10.41,10.41,0,0,1,9.59-6.45,10,10,0,0,1,1.43.11,132,132,0,0,1,52,19.12c1,.63,2,1.27,2.95,1.92s1.87,1.28,2.8,1.94c1-2.1,2-4.18,3-6.22-1.88-1.31-3.78-2.57-5.73-3.78a138.77,138.77,0,0,0-54-19.71,17.27,17.27,0,0,0-18.36,10.57,138.4,138.4,0,0,0-8.88,34.8c-.27,2.26-.48,4.51-.64,6.78A137.68,137.68,0,0,0,231.58,248q3.69.73,7.45,1.27a16.14,16.14,0,0,0,2.4.17,17.31,17.31,0,0,0,8.45-2.23l.12-.07.12.07a17.31,17.31,0,0,0,8.45,2.23,16.24,16.24,0,0,0,2.4-.17c2.5-.36,5-.78,7.45-1.27a137.48,137.48,0,0,0,92.48-65.9A136.1,136.1,0,0,0,379.27,104.07Z"/><path class="cls-4" d="M313,125c-.19-2.54-.44-5-.77-7.55a135.84,135.84,0,0,0-11.54-39.8c-.95-2.08-2-4.12-3-6.14a137.56,137.56,0,0,0-36.4-43.7,17.72,17.72,0,0,0-22.11,0,137.81,137.81,0,0,0-36.52,43.87c-1.06,2-2.07,4.06-3,6.14A135.54,135.54,0,0,0,188.1,117.6c-.33,2.5-.58,5-.77,7.56-.24,3.36-.37,6.75-.37,10.15a136.4,136.4,0,0,0,51.48,107c.38.31.76.62,1.15.92a16.34,16.34,0,0,0,2.91,1.84,17.39,17.39,0,0,0,7,1.78h1a17.37,17.37,0,0,0,7.18-1.68,16.08,16.08,0,0,0,3.14-1.95c.42-.33.84-.66,1.25-1a136.41,136.41,0,0,0,51.34-106.91Q313.39,130.09,313,125ZM258.21,236.58l-1.65,1.31a10.06,10.06,0,0,1-2.91,1.58l-.26.09a8.53,8.53,0,0,1-1.77.4,10.14,10.14,0,0,1-5-.52l-.32-.12a9.75,9.75,0,0,1-2.5-1.43c-.74-.58-1.47-1.16-2.2-1.77A129.64,129.64,0,0,1,193.8,135.31c0-1.86,0-3.73.12-5.57.12-2.68.3-5.33.58-8a129.3,129.3,0,0,1,10.83-40.15c1-2.1,2-4.18,3-6.22A131,131,0,0,1,243.4,33.07a10.89,10.89,0,0,1,13.59,0,131.3,131.3,0,0,1,34.94,42.16c1.05,2,2.06,4.12,3,6.21a129.2,129.2,0,0,1,10.89,40.11q.42,3.95.59,7.93c.09,1.94.13,3.88.13,5.83A129.69,129.69,0,0,1,258.21,236.58Z"/><path class="cls-2" d="M177.25,321h15.5v4.67H171.47v-44h5.78Z"/><path class="cls-2" d="M237.8,315.88H218.48l-3.55,9.79h-6.1l16-43.78h6.67l16,43.78h-6.1Zm-1.65-4.68-8-22.23-8,22.23Z"/><path class="cls-2" d="M272.81,281.64V309.5c0,3.92,1,6.82,2.89,8.72s4.61,2.84,8,2.84,6.05-.95,8-2.84,2.9-4.8,2.9-8.72V281.64h5.78v27.8a17.83,17.83,0,0,1-2.23,9.25,13.87,13.87,0,0,1-6,5.59,20.59,20.59,0,0,1-17,0,13.69,13.69,0,0,1-6-5.59,18.12,18.12,0,0,1-2.19-9.25v-27.8Z"/><path class="cls-2" d="M328.53,281.64v44h-5.78v-44Z"/><rect class="cls-5" x="63.33" y="15" width="373.33" height="320"/></g></g></svg>