<svg xmlns="http://www.w3.org/2000/svg" viewBox="0 0 203.15 102.06"><g id="Capa_2" data-name="Capa 2"><g id="Capa_1-2" data-name="Capa 1"><polygon points="45.11 0.69 26.38 32.49 7.34 0.69 0 0.69 0 48.68 8.5 48.68 8.5 17.3 24.27 43.2 28.25 43.2 44.02 16.88 44.09 48.68 52.52 48.68 52.45 0.69 45.11 0.69"/><path d="M94.17,25a25.21,25.21,0,0,0-5.55-2.33c-2-.6-4.08-1.14-6.14-1.62s-3.92-1-5.59-1.47a10.84,10.84,0,0,1-4-2.09,4.44,4.44,0,0,1-1.55-3.53,5.38,5.38,0,0,1,1.07-3.29A7.21,7.21,0,0,1,75.73,8.3a16.7,16.7,0,0,1,6-.9,25.15,25.15,0,0,1,6.58.93A26.64,26.64,0,0,1,95,11.18l2.81-6.93A24.72,24.72,0,0,0,90.36,1.1,34.21,34.21,0,0,0,81.79,0,26.28,26.28,0,0,0,70.93,2a14.43,14.43,0,0,0-6.38,5.21,13.05,13.05,0,0,0-2.09,7.17A11.47,11.47,0,0,0,64,20.64a12,12,0,0,0,4.08,3.94A25.4,25.4,0,0,0,73.67,27c2,.62,4.07,1.15,6.1,1.61s3.89.95,5.55,1.47a11.72,11.72,0,0,1,4.08,2.13A4.38,4.38,0,0,1,91,35.72a5.06,5.06,0,0,1-1.1,3.19,7.27,7.27,0,0,1-3.42,2.23,18.74,18.74,0,0,1-6.11.82,25.69,25.69,0,0,1-8.7-1.51,24.71,24.71,0,0,1-7.13-3.77L61.43,43.6a23.26,23.26,0,0,0,8.16,4.15,35.62,35.62,0,0,0,10.76,1.61,26.6,26.6,0,0,0,10.91-2,14.4,14.4,0,0,0,6.41-5.21,12.92,12.92,0,0,0,2.09-7.1,11.59,11.59,0,0,0-1.55-6.24A11.35,11.35,0,0,0,94.17,25Z"/><path d="M34.69,56.4a29.59,29.59,0,0,0-13.71-3H0v48H21a29.71,29.71,0,0,0,13.71-3A22.52,22.52,0,0,0,43.88,90a23.67,23.67,0,0,0,3.29-12.58,23.64,23.64,0,0,0-3.29-12.62A22.56,22.56,0,0,0,34.69,56.4ZM36,86a14.85,14.85,0,0,1-6.1,5.75,19.89,19.89,0,0,1-9.36,2.06H8.91V60.92H20.57A20,20,0,0,1,29.93,63,14.92,14.92,0,0,1,36,68.7a16.81,16.81,0,0,1,2.16,8.68A16.84,16.84,0,0,1,36,86Z"/><path d="M89.47,80.12q0,7.39-3.15,10.76t-9,3.36q-5.84,0-9-3.36T65.13,80.12V53.38H56.22V80.46q0,10.49,5.59,16.05t15.46,5.55q9.81,0,15.39-5.55t5.59-16.05V53.38H89.47Z"/><polygon points="149.33 53.38 139.66 53.38 127.54 70.42 115.25 53.38 105.17 53.38 122.02 76.87 104.21 101.37 114.36 101.37 127.23 83.11 140.28 101.37 150.56 101.37 132.54 76.55 149.33 53.38"/><path d="M199.86,64.76a22.62,22.62,0,0,0-9.19-8.36,29.59,29.59,0,0,0-13.71-3H156v48h21a29.71,29.71,0,0,0,13.71-3,22.58,22.58,0,0,0,9.19-8.4,23.67,23.67,0,0,0,3.29-12.58A23.64,23.64,0,0,0,199.86,64.76ZM192,86a14.88,14.88,0,0,1-6.11,5.75,19.82,19.82,0,0,1-9.35,2.06H164.89V60.92h11.66A19.94,19.94,0,0,1,185.9,63,14.94,14.94,0,0,1,192,68.7a16.81,16.81,0,0,1,2.16,8.68A16.84,16.84,0,0,1,192,86Z"/></g></g></svg>