<svg xmlns="http://www.w3.org/2000/svg" viewBox="0 0 500 350"><defs><style>.cls-1{fill:#fff;}</style></defs><g id="Capa_2" data-name="Capa 2"><g id="Capa_1-2" data-name="Capa 1"><rect class="cls-1" width="500" height="350"/><path d="M327.28,199.86q-3.63,6.39-6.83,11.12a91,91,0,0,1-6.76,8.79c-2.38,2.72-5,4.07-7.78,4.07a1.6,1.6,0,0,1-1.31-.51,2.26,2.26,0,0,1-.43-1.52,12.29,12.29,0,0,1,1-3.78l1.75-4.51,24.71-55.24H303.29L282.22,202a83.72,83.72,0,0,1-4.66,8.36,97.08,97.08,0,0,1-6.54,9q-3.91,4.88-7.41,4.87a2.31,2.31,0,0,1-1.82-.73,3.19,3.19,0,0,1-.65-2.18q0-3.78,5.23-13.52t7.34-14.39q2.12-4.65,4.29-9.16A28.94,28.94,0,0,0,280.33,173a17.3,17.3,0,0,0-3.93-11.42q-3.91-4.71-11.48-4.72-10.76,0-16.79,6.83A120.79,120.79,0,0,0,235,182.85l1.89.87q2.32-4.35,5.45-9a64.34,64.34,0,0,1,5.53-7.27,33.13,33.13,0,0,1,4.79-4.36,7.38,7.38,0,0,1,3.86-1.74,2.11,2.11,0,0,1,1.67.58,2.85,2.85,0,0,1,.51,1.89q0,1.89-5.24,11.7t-8.21,16.21q-3,6.39-4.72,11.19a25.65,25.65,0,0,0-1.75,8.72q0,8.58,4.87,12.8a17.33,17.33,0,0,0,11.7,4.21q10.32,0,16.07-6.69t13.73-20.49c-.29,1.06-.68,2.61-1.16,4.65a26.58,26.58,0,0,0-.73,6.25q0,7.71,4,12c2.67,2.86,6.32,4.29,11,4.29q10.32,0,16.57-7.12T329,200.88Z"/><path d="M381.67,190,370,179.84a28.45,28.45,0,0,1-4.65-5.1,10.06,10.06,0,0,1-1.31-5.53,8.79,8.79,0,0,1,3.78-7.36,18.28,18.28,0,0,1,16.2-1.68c1.6.78,2.4,1.6,2.4,2.47s-.85,1.63-2.54,2a16.06,16.06,0,0,0-4.22,1.38,9.06,9.06,0,0,0-4.43,7.7,10.46,10.46,0,0,0,3.66,8,11.51,11.51,0,0,0,7.9,3.34,10.16,10.16,0,0,0,8-3.56,12.6,12.6,0,0,0,3.15-8.65q0-6.82-6.49-11.41a26.51,26.51,0,0,0-15.67-4.58q-14.72,0-23.54,8.09t-8.82,17.84a16,16,0,0,0,1.17,6.63,22.77,22.77,0,0,0,3.27,5.1,55.29,55.29,0,0,0,6.1,6q4,3.5,6.69,5.9a23.22,23.22,0,0,1,4,4.44A10.83,10.83,0,0,1,366,216.7a8.61,8.61,0,0,1-3.64,7.14,13.77,13.77,0,0,1-8.57,2.77,18.74,18.74,0,0,1-9.53-2.31q-4-2.3-4-4.38c0-.87.51-1.43,1.52-1.67l3.85-.88a7.34,7.34,0,0,0,4.22-3,9.27,9.27,0,0,0,1.89-5.81,10.92,10.92,0,0,0-3.66-8.14,11.33,11.33,0,0,0-16.31-.06,11.52,11.52,0,0,0-3.29,8.25q0,9.06,8.82,14.68A36,36,0,0,0,357,228.93a42.92,42.92,0,0,0,22.31-6q10.05-6,10.06-16.75a19.32,19.32,0,0,0-1.9-8.74A26.34,26.34,0,0,0,381.67,190Z"/><path d="M483.11,204.51c-1,1.84-2.18,3.88-3.63,6.1a98.66,98.66,0,0,1-6.47,8.51q-4.29,5.16-8.22,5.16a2.63,2.63,0,0,1-1.82-.58,2.05,2.05,0,0,1-.65-1.6q0-2.17,5-11.63t8.8-17.45q3.78-8,4.87-10.9a22.84,22.84,0,0,0,1.09-7.84q0-8.73-5.59-13.09a20.17,20.17,0,0,0-12.73-4.36q-8.28,0-12.13,3.2a86.81,86.81,0,0,0-9.52,9.74l20.2-48.55H419.44v.09H201.9v0q-3.69-.27-7.77-.27l-19.5,0v0H91.73l-1,2.51H132.1a33.07,33.07,0,0,1,8.24.9,4,4,0,0,1,2.76,4.15q0,2.61-4,12.94t-7.34,18.89q-1.85,4.71-4.44,11.22H53.73L52.81,174h73.58q-1.77,4.41-3.86,9.58-5.88,14.53-10.24,24.49t-6.91,12.79q-2.53,2.83-7.92,3.42l-8,.58H15.92L15,227.19H158.51v-2.33c-5.81,0-9.67-.29-11.55-.87s-2.84-1.65-2.84-3.2q0-2.76,3.64-11.77l13.66-34.46,7-.14,4.51.14c2.61,0,4.43.66,5.44,2a8.16,8.16,0,0,1,1.53,5.16q0,1-2.76,10.53T174.36,206q0,11.34,6.85,17.15t19.26,5.82q12.25,0,19.75-5.82T232.94,205l-1.89-.73c-1.16,2.42-2.21,4.46-3.13,6.1a51.25,51.25,0,0,1-3.34,5.17,29.57,29.57,0,0,1-4.8,5.08c-1.88,1.6-3.56,2.4-5,2.4s-2.18-.34-2.42-1a6.68,6.68,0,0,1-.37-2.32,60.67,60.67,0,0,1,1.68-7.27A48.13,48.13,0,0,0,215.35,200a27,27,0,0,0-1.23-8.86,25.81,25.81,0,0,0-5-7.85,19.82,19.82,0,0,0-7.34-5.75q-3.57-1.38-10.54-3.41v-.87l3.62.14q15.65,0,27.6-7.48t11.95-21q0-12.21-10.61-18a39.46,39.46,0,0,0-8.09-3.24H421.6l4.24.19q4.79,0,4.79,3.35a12.54,12.54,0,0,1-.8,3.92q-.79,2.33-4.07,10.61t-11,27.55q-7.79,19.26-13.74,33.8t-9.89,24.13H419.3l17.87-43.76q3.93-9.44,8.29-14.61t6.83-6.76a9.3,9.3,0,0,1,5.09-1.6,2.51,2.51,0,0,1,2,.73,3.41,3.41,0,0,1,.66,2.33q0,3.91-4.07,11.62t-7.56,14.47q-3.5,6.76-5.67,11.12a29.7,29.7,0,0,0-2.33,11.34q0,7.26,4,11.92t11.7,4.65q10.9,0,16.57-5.89T485,205.38Zm-291-44.77q-7,11.77-16.79,11.77l-8,.27v-.1h-4.68l19.66-47.85,7.71.29q9.15,0,9.15,11.2A46.9,46.9,0,0,1,192.16,159.74Z"/></g></g></svg>