<svg xmlns="http://www.w3.org/2000/svg" viewBox="0 0 500 350"><defs><style>.cls-1{fill:#fff;}.cls-2{fill:#24252b;}.cls-3{fill:#f15a24;}</style></defs><g id="Capa_2" data-name="Capa 2"><g id="Capa_1-2" data-name="Capa 1"><rect class="cls-1" width="500" height="350"/><path class="cls-2" d="M34.86,145.28a32.79,32.79,0,0,1-14.24-10.8A29.5,29.5,0,0,1,15,117.25H41.57q.59,5.7,4,8.69a12.67,12.67,0,0,0,8.76,3q5.53,0,8.76-2.55a8.57,8.57,0,0,0,3.21-7.09A8.34,8.34,0,0,0,63.69,113a20.45,20.45,0,0,0-6.27-4.09,101.73,101.73,0,0,0-10.59-3.65,116.78,116.78,0,0,1-16.21-6.13,30,30,0,0,1-10.8-9.06q-4.53-6-4.53-15.62,0-14.31,10.37-22.41t27-8.11Q69.61,44,80,52.06t11.1,22.56h-27a10.6,10.6,0,0,0-3.65-7.82A12.9,12.9,0,0,0,51.79,64a10.73,10.73,0,0,0-7.3,2.41A9.27,9.27,0,0,0,46.39,81q4.68,2.77,14.6,6a136.31,136.31,0,0,1,16.14,6.42,30.91,30.91,0,0,1,10.73,8.91q4.52,5.83,4.52,15a29.48,29.48,0,0,1-4.45,15.91A31.21,31.21,0,0,1,75,144.7q-8.48,4.23-20,4.23A52.56,52.56,0,0,1,34.86,145.28Z"/><path class="cls-2" d="M123.27,144a37.39,37.39,0,0,1-15-14.6q-5.48-9.5-5.48-22.19a43.25,43.25,0,0,1,5.55-22.12,37.68,37.68,0,0,1,15.18-14.68,48.25,48.25,0,0,1,43.22,0,37.64,37.64,0,0,1,15.19,14.68,43.25,43.25,0,0,1,5.55,22.12,42.92,42.92,0,0,1-5.62,22.12A38.06,38.06,0,0,1,166.48,144a45.78,45.78,0,0,1-21.68,5.11A44.9,44.9,0,0,1,123.27,144ZM157,122.21q5-5.25,5-15t-4.89-15A16.6,16.6,0,0,0,133,92.06q-4.82,5.19-4.81,15.12,0,9.78,4.74,15a15.34,15.34,0,0,0,11.9,5.26A16.25,16.25,0,0,0,157,122.21Z"/><path class="cls-2" d="M200.5,85a35.51,35.51,0,0,1,12.92-14.6,33.84,33.84,0,0,1,18.26-5.11,31.31,31.31,0,0,1,15.11,3.51,25.83,25.83,0,0,1,10,9.19V66.44h25v81.47h-25V136.38a27,27,0,0,1-10.15,9.2,31.42,31.42,0,0,1-15.11,3.5,33.21,33.21,0,0,1-18.11-5.18,35.88,35.88,0,0,1-12.92-14.75A49.19,49.19,0,0,1,195.76,107,48.76,48.76,0,0,1,200.5,85Zm51.11,7.45a17.55,17.55,0,0,0-25.26-.07q-5.19,5.33-5.19,14.67t5.19,14.82a17.37,17.37,0,0,0,25.26.07q5.17-5.4,5.18-14.74T251.61,92.43Z"/><path class="cls-2" d="M334.9,68.78a30.92,30.92,0,0,1,15-3.51,33.78,33.78,0,0,1,18.25,5.11A35.53,35.53,0,0,1,381.12,85a48.76,48.76,0,0,1,4.74,22,49.19,49.19,0,0,1-4.74,22.12,35.9,35.9,0,0,1-12.93,14.75,33.41,33.41,0,0,1-18.25,5.18,31.09,31.09,0,0,1-15-3.5,27.39,27.39,0,0,1-10.15-9.06v50.23h-25V66.44h25V78A27.07,27.07,0,0,1,334.9,68.78Zm20.37,23.58A17.07,17.07,0,0,0,342.5,87a16.83,16.83,0,0,0-12.63,5.4q-5.19,5.4-5.19,14.75t5.19,14.74a16.8,16.8,0,0,0,12.63,5.41,17,17,0,0,0,12.7-5.48q5.25-5.47,5.25-14.82T355.27,92.36Z"/><path class="cls-2" d="M434,68.78a30.89,30.89,0,0,1,15-3.51,33.78,33.78,0,0,1,18.25,5.11A35.44,35.44,0,0,1,480.25,85,48.63,48.63,0,0,1,485,107a49.06,49.06,0,0,1-4.75,22.12,35.81,35.81,0,0,1-12.92,14.75,33.41,33.41,0,0,1-18.25,5.18,31.09,31.09,0,0,1-15-3.5A27.39,27.39,0,0,1,424,136.52v50.23H399V66.44h25V78A27.07,27.07,0,0,1,434,68.78Zm20.37,23.58A17.11,17.11,0,0,0,441.64,87,16.86,16.86,0,0,0,429,92.43q-5.17,5.4-5.18,14.75T429,121.92a17.46,17.46,0,0,0,25.34-.07q5.25-5.47,5.25-14.82T454.41,92.36Z"/><path class="cls-2" d="M94.28,261.37a25.08,25.08,0,0,1,5.41,15.84q0,12.85-9,20.37t-25,7.52H17.92V202.6H64.06q15.61,0,24.46,7.15t8.83,19.42q0,9.06-4.75,15A24.47,24.47,0,0,1,80,252.53,23.88,23.88,0,0,1,94.28,261.37Zm-51.39-17.3H59.24q6.13,0,9.42-2.71t3.28-8c0-3.51-1.09-6.18-3.28-8s-5.33-2.78-9.42-2.78H42.89Zm28.1,38q3.44-2.85,3.44-8.25a10.59,10.59,0,0,0-3.58-8.47q-3.59-3.06-9.86-3.06H42.89V285H61.28Q67.57,285,71,282.1Z"/><path class="cls-2" d="M455.94,305.1l-20.88-31.39L416.67,305.1H388.34L421.19,253,387.61,202.6h29.06l20.58,31,18.11-31h28.33l-32.56,51.69L485,305.1Z"/><path class="cls-3" d="M362.46,201H125a11.76,11.76,0,0,0-11.75,11.76v81.51A11.76,11.76,0,0,0,125,306.05H362.46a11.77,11.77,0,0,0,11.76-11.76V212.78A11.77,11.77,0,0,0,362.46,201Zm-18,80H143a4.7,4.7,0,0,1-4.7-4.71V230.81a4.7,4.7,0,0,1,4.7-4.71H344.43a4.71,4.71,0,0,1,4.71,4.71v45.45A4.71,4.71,0,0,1,344.43,281Z"/></g></g></svg>